<svg width="230" height="230" viewBox="0 0 230 230" fill="none" xmlns="http://www.w3.org/2000/svg">
<g clip-path="url(#clip0_31_10)">
<path d="M229.978 91.6513C229.787 85.5986 224.899 80.7264 218.843 80.5193L217.248 80.5C213.53 80.5 203.207 80.8602 190.442 83.3444C188.157 66.0945 183.53 53.8471 183.147 52.8696C182.012 49.9447 179.727 47.6142 176.829 46.4144C175.419 45.8317 173.924 45.5402 172.429 45.5402C170.85 45.5402 169.274 45.8659 167.798 46.5136C166.955 46.8856 157.667 51.0714 146.079 59.2287C135.924 39.9088 124.176 27.4543 123.313 26.5536C121.14 24.2842 118.138 23.0039 115.003 23.0039C111.867 23.0039 108.865 24.2842 106.696 26.5496C105.833 27.4502 94.0686 39.9241 83.9105 59.2628C72.349 51.1284 63.0498 46.8811 62.2102 46.5096C60.7345 45.8618 59.1587 45.5361 57.5797 45.5361C56.0847 45.5361 54.5897 45.8272 53.1791 46.4103C50.2812 47.6102 48.0001 49.9447 46.8618 52.8655C46.4822 53.843 41.8553 66.0864 39.571 83.3404C26.7985 80.8526 16.4791 80.5 12.7609 80.5L11.1586 80.5193C5.10583 80.7264 0.214316 85.5986 0.0229498 91.6513C-0.0462294 93.8057 -1.269 144.816 30.4555 176.544C59.4394 205.528 104.922 206.996 113.746 206.996L114.926 206.98C114.949 206.98 114.972 206.996 114.995 206.996C115.018 206.996 115.041 206.98 115.065 206.98L116.245 206.996C125.069 206.996 170.552 205.528 199.535 176.544C231.27 144.819 230.047 93.8093 229.978 91.6513ZM172.429 57.0365C172.429 57.0365 177.037 69.1038 179.141 86.0393C172.479 87.9062 165.556 90.4133 158.683 93.7671C156.9 85.2073 154.229 77.1843 151.081 69.8473C162.827 61.3373 172.429 57.0365 172.429 57.0365ZM57.5752 57.0365C57.5752 57.0365 67.1776 61.3144 78.9305 69.8244C75.7756 77.1843 73.0924 85.2383 71.31 93.8287C64.437 90.4744 57.5253 87.9291 50.8594 86.0586C52.9635 69.1155 57.5752 57.0365 57.5752 57.0365ZM38.5926 168.413C10.0189 139.84 11.5179 92.0156 11.5179 92.0156C11.5179 92.0156 11.951 92.0039 12.756 92.0039C18.7818 92.0039 45.6382 92.9621 69.439 105.785C69.1632 108.809 69.0019 111.88 69.0019 115C69.0019 150.4 88.2144 180.304 99.2198 194.545C82.7331 192.586 56.7819 186.603 38.5926 168.413ZM115.255 195.228C115.033 195.155 114.814 195.086 114.53 194.982C110.482 190.57 80.5023 156.457 80.5023 115C80.5023 70.5413 115.002 34.5007 115.002 34.5007C115.002 34.5007 149.502 70.5413 149.502 115C149.502 157.661 117.823 192.475 115.255 195.228ZM191.415 168.413C173.226 186.603 147.275 192.586 130.788 194.545C141.789 180.305 161.002 150.401 161.002 115C161.002 111.861 160.841 108.771 160.557 105.728C184.358 92.9168 211.226 92.0004 217.248 92.0004C218.053 92.0004 218.486 92.012 218.486 92.012C218.486 92.012 219.985 139.84 191.415 168.413Z" fill="black"/>
</g>
<defs>
<clipPath id="clip0_31_10">
<rect width="230" height="230" fill="white"/>
</clipPath>
</defs>
</svg>
