<svg width="56" height="56" viewBox="0 0 56 56" fill="none" xmlns="http://www.w3.org/2000/svg">
<path d="M55.8196 16.5287C55.7883 14.1773 55.3474 11.8494 54.5167 9.64896C53.7963 7.79291 52.696 6.10728 51.2862 4.69977C49.8763 3.29227 48.1879 2.19384 46.3287 1.47467C44.153 0.659275 41.8544 0.218379 39.5309 0.170751C36.5393 0.0372549 35.5909 0 27.9969 0C20.4029 0 19.4296 2.08177e-07 16.4598 0.170751C14.1373 0.218729 11.8398 0.659619 9.66504 1.47467C7.8056 2.19334 6.1169 3.29159 4.70699 4.69916C3.29707 6.10673 2.19699 7.79262 1.47712 9.64896C0.658737 11.8195 0.218064 14.1137 0.174145 16.4324C0.0404265 19.4221 0 20.369 0 27.9503C0 35.5317 -2.31693e-08 36.5003 0.174145 39.4682C0.220791 41.7904 0.659262 44.0816 1.47712 46.2579C2.1982 48.1137 3.2991 49.7989 4.70949 51.2059C6.11987 52.6128 7.80873 53.7106 9.66815 54.4291C11.837 55.2773 14.1349 55.7497 16.4629 55.8261C19.4576 55.9596 20.406 56 28 56C35.594 56 36.5673 56 39.5371 55.8261C41.8605 55.7805 44.1593 55.3406 46.335 54.5253C48.1936 53.8053 49.8816 52.7066 51.2914 51.2992C52.7011 49.8918 53.8017 48.2066 54.5229 46.351C55.3407 44.1778 55.7792 41.8867 55.8259 39.5614C55.9596 36.5748 56 35.6279 56 28.0435C55.9938 20.4621 55.9938 19.4997 55.8196 16.5287ZM27.9782 42.2872C20.036 42.2872 13.602 35.8638 13.602 27.9348C13.602 20.0058 20.036 13.5824 27.9782 13.5824C31.7911 13.5824 35.4477 15.0946 38.1438 17.7862C40.8399 20.4777 42.3545 24.1283 42.3545 27.9348C42.3545 31.7413 40.8399 35.3919 38.1438 38.0835C35.4477 40.7751 31.7911 42.2872 27.9782 42.2872ZM42.9267 16.3983C42.4864 16.3987 42.0503 16.3124 41.6434 16.1444C41.2364 15.9763 40.8667 15.7298 40.5554 15.419C40.244 15.1081 39.9971 14.739 39.8288 14.3328C39.6604 13.9265 39.574 13.4912 39.5744 13.0516C39.5744 12.6123 39.6611 12.1773 39.8295 11.7714C39.9979 11.3656 40.2447 10.9968 40.5558 10.6862C40.867 10.3755 41.2363 10.1291 41.6429 9.96103C42.0494 9.79292 42.4851 9.7064 42.9251 9.7064C43.3652 9.7064 43.8009 9.79292 44.2074 9.96103C44.6139 10.1291 44.9833 10.3755 45.2945 10.6862C45.6056 10.9968 45.8524 11.3656 46.0208 11.7714C46.1892 12.1773 46.2759 12.6123 46.2759 13.0516C46.2759 14.9019 44.777 16.3983 42.9267 16.3983Z" fill="#111633"/>
<path d="M27.9778 37.2582C33.1353 37.2582 37.3163 33.0841 37.3163 27.9352C37.3163 22.7863 33.1353 18.6122 27.9778 18.6122C22.8203 18.6122 18.6393 22.7863 18.6393 27.9352C18.6393 33.0841 22.8203 37.2582 27.9778 37.2582Z" fill="#111633"/>
</svg>
