<svg width="56" height="56" viewBox="0 0 56 56" fill="none" xmlns="http://www.w3.org/2000/svg">
<path d="M28.0084 8.62958e-05C20.5833 0.00752605 13.4645 2.95913 8.21368 8.20731C2.96287 13.4555 0.00894902 20.5716 1.59186e-05 27.9944C-0.00560825 33.2796 1.47917 38.4297 4.28 42.8884L4.94366 43.9454L2.1147 54.2739L12.7163 51.4964L13.7342 52.1036C18.0508 54.6577 22.9754 56.0036 27.9915 56H27.9971C35.4197 55.9896 42.5354 53.0376 47.7845 47.7911C53.0336 42.5447 55.9879 35.4317 55.9998 28.0113C56.0127 24.3332 55.2955 20.6891 53.8899 17.29C52.4843 13.8908 50.4181 10.8042 47.811 8.20891C45.2174 5.59922 42.1317 3.5299 38.7325 2.12083C35.3333 0.711753 31.6882 -0.00907798 28.0084 8.62958e-05ZM44.4759 40.0209C43.7729 41.9888 40.4096 43.7767 38.7955 44.0185C37.026 44.3235 35.2096 44.2099 33.4919 43.6868C31.8623 43.1823 30.2609 42.5911 28.6945 41.9157C20.247 38.2723 14.7353 29.7767 14.3079 29.2089C13.8917 28.6466 10.8771 24.6434 10.8771 20.5053C10.8771 16.3615 13.0481 14.3262 13.8186 13.4828C14.1015 13.1632 14.4473 12.9054 14.8344 12.7255C15.2215 12.5455 15.6415 12.4473 16.0683 12.437C16.6307 12.437 17.1875 12.4426 17.6824 12.4651C18.1998 12.4876 18.8916 12.2683 19.5721 13.9101C20.2751 15.5968 21.9624 19.735 22.1705 20.1567C22.3786 20.5727 22.5192 21.0675 22.2436 21.6298C21.9624 22.1976 21.8274 22.5406 21.4 23.0354C20.9838 23.5302 20.517 24.1318 20.1402 24.5141C19.7183 24.9302 19.2797 25.3856 19.769 26.229C20.2639 27.0667 21.9511 29.8273 24.4483 32.0595C27.6653 34.9269 30.3818 35.8097 31.2198 36.237C32.0634 36.653 32.5527 36.5912 33.0476 36.0233C33.5369 35.4554 35.151 33.5663 35.7135 32.7285C36.2759 31.8852 36.8327 32.0257 37.6088 32.3012C38.3793 32.588 42.5187 34.6177 43.3567 35.0394C44.1891 35.4554 44.7571 35.6691 44.9708 36.0233C45.1733 36.3719 45.1733 38.053 44.4759 40.0209Z" fill="#111633"/>
</svg>
